<?xml version="1.0" encoding="utf-8"?>
<svg xmlns="http://www.w3.org/2000/svg" viewBox="0 0 48 48" width="144" height="144">
  <path d="M24 4C15.181311 4 8 11.181311 8 20C8 24.855113 10.17251 28.191538 12.285156 30.589844C14.397802 32.98815 16.237593 34.689476 16.474609 35.808594C16.98063 38.196568 17.515625 40.492187 17.515625 40.492188L17.513672 40.476562C17.96956 42.527106 19.805371 44 21.90625 44L26.09375 44C28.19401 44 30.029959 42.527432 30.486328 40.478516C30.489428 40.464996 31.018914 38.189504 31.523438 35.808594C31.760784 34.689262 33.602049 32.988169 35.714844 30.589844C37.827639 28.191518 40 24.855113 40 20C40 11.181311 32.818689 4 24 4 z M 24 7C31.197311 7 37 12.802689 37 20C37 23.994887 35.366299 26.448997 33.464844 28.607422C31.850623 30.439794 29.901089 31.892098 28.982422 34L19.015625 34C18.097627 31.892018 16.149292 30.439811 14.535156 28.607422C12.633896 26.448953 11 23.994887 11 20C11 12.802689 16.802689 7 24 7 z M 19.8125 37L28.185547 37C27.92023 38.186825 27.560547 39.810547 27.560547 39.810547L27.558594 39.818359L27.558594 39.826172C27.404331 40.520337 26.804871 41 26.09375 41L21.90625 41C21.195129 41 20.595565 40.519634 20.441406 39.826172L20.439453 39.818359L20.4375 39.810547C20.4375 39.810547 20.077817 38.186825 19.8125 37 z" fill="#5B5B5B" />
</svg>