<svg xmlns="http://www.w3.org/2000/svg" viewBox="0 0 24 24">
  <path d="M12 2C6.486 2 2 6.486 2 12C2 17.514 6.486 22 12 22C17.514 22 22 17.514 22 12C22 6.486 17.514 2 12 2 z M 11.882812 6L12.121094 6C12.536094 6 12.910594 6.2565312 13.058594 6.6445312L16.484375 15.642578C16.733375 16.297578 16.249828 17 15.548828 17L15.546875 17C15.129875 17 14.756375 16.742516 14.609375 16.353516L14.099609 15L9.9003906 15L9.3886719 16.353516C9.2416719 16.742516 8.869125 17 8.453125 17C7.752125 17 7.2675781 16.298578 7.5175781 15.642578L10.947266 6.6445312C11.094266 6.2565313 11.466812 6 11.882812 6 z M 12.001953 9.4453125L10.65625 13L13.34375 13L12.001953 9.4453125 z" fill="#939393" />
</svg>