<svg xmlns="http://www.w3.org/2000/svg" 
viewBox="0 0 48 48">
<path stroke= "#ffffff" stroke-width="0.1px" d="M24 10C17.72 10 12.551969 14.85 12.042969 21L11.5 21C6.813 21 3 24.813 3 29.5C3 34.187 6.813 38 11.5 38L15.5 38L15.5 35L11.5 35C8.467 35 6 32.533 6 29.5C6 26.467 8.467 24 11.5 24L13.5 24C14.329 24 15 23.329 15 22.5L15 22C15 17.038 19.038 13 24 13C28.962 13 33 17.038 33 22L33 22.5C33 23.329 33.671 24 34.5 24L36.5 24C39.533 24 42 26.467 42 29.5C42 32.533 39.533 35 36.5 35L32.5 35L32.5 38L36.5 38C41.187 38 45 34.187 45 29.5C45 24.813 41.187 21 36.5 21L35.957031 21C35.448031 14.85 30.28 10 24 10 z M 28.976562 24.978516 A 1.50015 1.50015 0 0 0 27.802734 25.576172L23.439453 29.939453 A 1.50015 1.50015 0 1 0 25.560547 32.060547L27.5 30.121094L27.5 44.5 A 1.50015 1.50015 0 1 0 30.5 44.5L30.5 30.121094L32.439453 32.060547 A 1.50015 1.50015 0 1 0 34.560547 29.939453L30.189453 25.568359 A 1.50015 1.50015 0 0 0 28.976562 24.978516 z M 18.976562 26.978516 A 1.50015 1.50015 0 0 0 17.5 28.5L17.5 42.878906L15.560547 40.939453 A 1.50015 1.50015 0 1 0 13.439453 43.060547L17.810547 47.431641 A 1.50015 1.50015 0 0 0 20.197266 47.423828L24.560547 43.060547 A 1.50015 1.50015 0 1 0 22.439453 40.939453L20.5 42.878906L20.5 28.5 A 1.50015 1.50015 0 0 0 18.976562 26.978516 z"/></svg>