<svg xmlns="http://www.w3.org/2000/svg" 
viewBox="0 0 48 48">
<path stroke= "#ffffff" stroke-width="0.1px"
 d="M15 5C11.428062 5 8.5 7.9280619 8.5 11.5L8.5 25.494141C6.3867632 27.325922 5 29.988854 5 33C5 38.504822 9.4951777 43 15 43C20.504822 43 25 38.504822 25 33C25 29.988854 23.613237 27.325922 21.5 25.494141L21.5 11.5C21.5 7.9280619 18.571938 5 15 5 z M 32.027344 6 A 1.50015 1.50015 0 0 0 30.808594 6.5898438C30.808594 6.5898438 29.883083 7.7985956 28.957031 9.375C28.03098 10.951404 27 12.820668 27 14.832031C27 17.630858 29.217543 20 32 20C34.782457 20 37 17.630858 37 14.832031C37 12.820668 35.96902 10.951404 35.042969 9.375C34.116917 7.7985956 33.191406 6.5898437 33.191406 6.5898438 A 1.50015 1.50015 0 0 0 32.027344 6 z M 15 8C16.950062 8 18.5 9.5499381 18.5 11.5L18.5 26.136719 A 1.50015 1.50015 0 0 0 19.115234 27.347656C20.863714 28.623931 22 30.66655 22 33C22 36.883178 18.883178 40 15 40C11.116822 40 8 36.883178 8 33C8 30.66655 9.1362856 28.623931 10.884766 27.347656 A 1.50015 1.50015 0 0 0 11.5 26.136719L11.5 11.5C11.5 9.5499381 13.049938 8 15 8 z M 32 10.205078C32.211095 10.528597 32.228439 10.505402 32.457031 10.894531C33.28098 12.297127 34 14.093395 34 14.832031C34 16.083204 33.083543 17 32 17C30.916457 17 30 16.083204 30 14.832031C30 14.093395 30.71902 12.297127 31.542969 10.894531C31.771561 10.505402 31.788905 10.528597 32 10.205078 z M 14.976562 16.978516 A 1.50015 1.50015 0 0 0 13.5 18.5L13.5 28.230469 A 5 5 0 0 0 15 38 A 5 5 0 0 0 16.5 28.236328L16.5 18.5 A 1.50015 1.50015 0 0 0 14.976562 16.978516 z M 37.041016 25 A 1.50015 1.50015 0 0 0 35.800781 25.599609C35.800781 25.599609 34.627362 27.161297 33.453125 29.183594C32.278888 31.20589 31 33.607143 31 36C31 39.295865 33.704135 42 37 42C40.295865 42 43 39.295865 43 36C43 33.607143 41.721112 31.20589 40.546875 29.183594C39.372638 27.161297 38.199219 25.599609 38.199219 25.599609 A 1.50015 1.50015 0 0 0 37.041016 25 z M 37 29.234375C37.383214 29.803265 37.47682 29.871103 37.953125 30.691406C39.028888 32.54411 40 34.892857 40 36C40 37.674135 38.674135 39 37 39C35.325865 39 34 37.674135 34 36C34 34.892857 34.971112 32.54411 36.046875 30.691406C36.52318 29.871103 36.616786 29.803265 37 29.234375 z"/></svg>