<svg 
xmlns="http://www.w3.org/2000/svg" viewBox="0 0 48 48">
<path stroke= "#ffffff" stroke-width="0.1px"
 d="M42.470703 3.9863281 A 1.50015 1.50015 0 0 0 41.439453 4.4394531L39.451172 6.4257812C35.270607 3.3227056 29.392634 3.4843188 25.605469 7.2714844L22.5 10.378906L21.560547 9.4394531 A 1.50015 1.50015 0 1 0 19.439453 11.560547L21.265625 13.386719 A 1.50015 1.50015 0 0 0 21.611328 13.732422L23.378906 15.5L18.439453 20.439453 A 1.50015 1.50015 0 1 0 20.560547 22.560547L25.5 17.621094L30.378906 22.5L25.439453 27.439453 A 1.50015 1.50015 0 1 0 27.560547 29.560547L32.5 24.621094L34.265625 26.386719 A 1.50015 1.50015 0 0 0 34.611328 26.732422L36.439453 28.560547 A 1.50015 1.50015 0 1 0 38.560547 26.439453L37.621094 25.5L40.728516 22.394531C44.515681 18.607366 44.677294 12.729393 41.574219 8.5488281L43.560547 6.5605469 A 1.50015 1.50015 0 0 0 42.470703 3.9863281 z M 33.167969 7.1308594C35.107689 7.1308594 37.038666 7.8804481 38.539062 9.3496094 A 1.50015 1.50015 0 0 0 38.650391 9.4609375C41.608211 12.481643 41.60254 17.274411 38.605469 20.271484L35.5 23.378906L33.734375 21.613281 A 1.50015 1.50015 0 0 0 33.388672 21.267578L26.734375 14.613281 A 1.50015 1.50015 0 0 0 26.388672 14.267578L24.621094 12.5L27.728516 9.3945312C29.236931 7.8861163 31.202506 7.1308594 33.167969 7.1308594 z M 10.484375 18.984375 A 1.50015 1.50015 0 0 0 9.4394531 21.560547L10.378906 22.5L7.2714844 25.605469C3.4843188 29.392634 3.3227057 35.270607 6.4257812 39.451172L4.4394531 41.439453 A 1.50015 1.50015 0 1 0 6.5605469 43.560547L8.5488281 41.574219C12.729393 44.677294 18.607366 44.515681 22.394531 40.728516L25.5 37.621094L26.439453 38.560547 A 1.50015 1.50015 0 1 0 28.560547 36.439453L26.734375 34.613281 A 1.50015 1.50015 0 0 0 26.388672 34.267578L13.734375 21.613281 A 1.50015 1.50015 0 0 0 13.388672 21.267578L11.560547 19.439453 A 1.50015 1.50015 0 0 0 10.484375 18.984375 z M 12.5 24.621094L23.378906 35.5L20.271484 38.605469C17.274411 41.602542 12.481643 41.608213 9.4609375 38.650391 A 1.50015 1.50015 0 0 0 9.3496094 38.539062C6.3917894 35.518358 6.3974574 30.725589 9.3945312 27.728516L12.5 24.621094 z"/></svg>