<svg xmlns="http://www.w3.org/2000/svg" viewBox="0 0 48 48">
<path stroke= "#ffffff" stroke-width="0.1px" d="M4.6738281 9C2.5636642 9 0.87308177 10.919002 1.2089844 13.025391 A 1.50015 1.50015 0 0 0 1.2089844 13.027344C1.6195262 15.595136 2.5327396 17.881178 3.2402344 19.396484C3.631651 20.234645 4.268272 20.909992 5.0371094 21.365234C5.0129817 21.741501 5 22.131313 5 22.535156C5 33.243134 13.503236 41.992187 24 41.992188C34.496868 41.992188 43 33.242214 43 22.535156C43 22.130596 42.987104 21.740168 42.962891 21.363281C43.730734 20.907713 44.366856 20.232521 44.757812 19.394531C45.465218 17.879218 46.378644 15.594363 46.789062 13.027344C47.126902 10.919784 45.434383 9 43.324219 9L4.6738281 9 z M 4.6738281 12L43.324219 12C43.654055 12 43.874332 12.252294 43.826172 12.552734C43.482714 14.700942 42.671569 16.772259 42.039062 18.126953C41.786783 18.6677 41.266294 19 40.675781 19L7.3222656 19C6.7326075 19 6.2111805 18.66701 5.9589844 18.126953C5.3264792 16.772259 4.5153332 14.700942 4.171875 12.552734C4.124906 12.251899 4.3446306 12 4.6738281 12 z M 8.015625 22L39.984375 22C39.990455 22.177135 40 22.346892 40 22.535156C40 26.91066 38.340593 30.860876 35.652344 33.800781C34.423302 28.932729 29.962422 25.299982 24.628906 25.03125C24.423347 25.010187 24.213542 25 24 25C23.786458 25 23.576653 25.010187 23.371094 25.03125C18.036909 25.300015 13.576039 28.933764 12.347656 33.802734C9.6592286 30.862911 8 26.911354 8 22.535156C8 22.346892 8.0095454 22.177135 8.015625 22 z M 24 28C24.958333 28 25.487149 28.305367 25.878906 28.746094C26.270664 29.186821 26.5 29.833333 26.5 30.5C26.5 31.166667 26.270664 31.813179 25.878906 32.253906C25.487149 32.694633 24.958333 33 24 33C23.041667 33 22.512851 32.694633 22.121094 32.253906C21.729336 31.813179 21.5 31.166667 21.5 30.5C21.5 29.833333 21.729336 29.186821 22.121094 28.746094C22.512851 28.305367 23.041667 28 24 28 z M 18.564453 29.726562C18.531141 29.984089 18.5 30.241701 18.5 30.5C18.5 31.833333 18.937331 33.186821 19.878906 34.246094C20.820482 35.305367 22.291667 36 24 36C25.708333 36 27.179518 35.305367 28.121094 34.246094C29.062669 33.186821 29.5 31.833333 29.5 30.5C29.5 30.241701 29.468859 29.984089 29.435547 29.726562C31.517134 31.21802 32.873567 33.540551 32.982422 36.162109C30.420857 37.948953 27.329779 38.992187 24 38.992188C20.670182 38.992188 17.57914 37.94882 15.017578 36.162109C15.126433 33.540551 16.482866 31.21802 18.564453 29.726562 z"/></svg>