<svg xmlns="http://www.w3.org/2000/svg" viewBox="0 0 48 48">
  <path stroke= "#ffffff" stroke-width="0.1px" d="M13.626953 5.0507812C13.1194 5.048361 12.636202 5.0892334 12.179688 5.1679688C11.266657 5.3254395 10.459473 5.6323052 9.7734375 6.0410156C8.4013667 6.8584364 7.5264173 8.0051698 6.9257812 8.9414062C4.0864248 13.364538 4.7102119 17.974481 7.3632812 21.085938C9.862206 24.016616 13.91651 25.765212 18.310547 25.960938C18.475278 26.483566 18.7011 26.987421 19.009766 27.455078C18.746088 28.11526 18.415398 28.644882 18.154297 28.808594C17.992566 28.909999 17.857957 28.965115 17.488281 28.917969C17.118606 28.870819 16.512667 28.66827 15.683594 28.136719C13.502131 26.737869 10.954944 26.90955 9.015625 27.900391C7.0763064 28.891231 5.5662548 30.647239 5.1953125 32.779297C4.80972 34.996454 5.2235945 36.854492 6.0410156 38.226562C6.8584364 39.598633 8.0051698 40.473583 8.9414062 41.074219C13.364538 43.913575 17.97448 43.289788 21.085938 40.636719C24.009225 38.144096 25.755837 34.103873 25.958984 29.722656C26.512471 29.54828 27.016401 29.298405 27.46875 28.994141C28.122822 29.257026 28.645951 29.586308 28.808594 29.845703C28.909999 30.007434 28.965115 30.142043 28.917969 30.511719C28.870819 30.881394 28.66827 31.487333 28.136719 32.316406C26.737869 34.497869 26.90955 37.045056 27.900391 38.984375C28.891231 40.923694 30.647239 42.433745 32.779297 42.804688C34.996454 43.19028 36.854493 42.776408 38.226562 41.958984C39.598633 41.141564 40.473583 39.99483 41.074219 39.058594C43.913575 34.635462 43.289788 30.025519 40.636719 26.914062C38.135948 23.981216 34.077483 22.232602 29.679688 22.039062C29.513951 21.524596 29.286096 21.028699 28.980469 20.568359C29.245502 19.897233 29.581551 19.357031 29.845703 19.191406C30.007434 19.090001 30.142043 19.034885 30.511719 19.082031C30.881394 19.129181 31.487333 19.33173 32.316406 19.863281C34.497869 21.262131 37.045056 21.09045 38.984375 20.099609C40.923694 19.108769 42.433745 17.352761 42.804688 15.220703C43.19028 13.003543 42.776405 11.145508 41.958984 9.7734375C41.141564 8.4013667 39.99483 7.5264173 39.058594 6.9257812C36.847028 5.5061031 34.588425 4.9533958 32.494141 5.0859375C30.399856 5.2184792 28.469791 6.0367466 26.914062 7.3632812C23.982517 9.8629453 22.233914 13.918912 22.039062 18.314453C21.501052 18.48383 21.011056 18.727009 20.568359 19.019531C19.897233 18.754498 19.357031 18.418449 19.191406 18.154297C19.090001 17.992566 19.034885 17.857957 19.082031 17.488281C19.129181 17.118606 19.33173 16.512667 19.863281 15.683594C21.262131 13.502131 21.09045 10.954944 20.099609 9.015625C19.108766 7.0763064 17.352761 5.5662548 15.220703 5.1953125C14.666414 5.0989144 14.134506 5.0532015 13.626953 5.0507812 z M 33.212891 7.9609375C34.488347 7.9988788 35.887933 8.4564528 37.4375 9.4511719C38.186264 9.9315359 38.91353 10.524165 39.380859 11.308594C39.848189 12.093023 40.130064 13.081235 39.847656 14.705078C39.679599 15.67102 38.792822 16.828075 37.619141 17.427734C36.445459 18.027394 35.163084 18.125038 33.935547 17.337891C32.85162 16.642942 31.860543 16.229166 30.890625 16.105469C29.920707 15.981771 28.971597 16.199169 28.251953 16.650391C27.442887 17.157677 26.93938 17.84417 26.578125 18.546875C26.107788 18.340002 25.593924 18.195576 25.050781 18.109375C25.297593 14.589348 26.78809 11.414288 28.861328 9.6464844C30.13893 8.5571015 31.573018 7.9121558 33.212891 7.9609375 z M 13.599609 8.0410156C13.932864 8.0470014 14.299117 8.0817418 14.705078 8.1523438C15.67102 8.3204013 16.828075 9.2071783 17.427734 10.380859C18.027394 11.554541 18.125038 12.836916 17.337891 14.064453C16.642942 15.14838 16.229166 16.139457 16.105469 17.109375C15.981771 18.079293 16.199169 19.028403 16.650391 19.748047C17.157677 20.557113 17.84417 21.06062 18.546875 21.421875C18.328356 21.911711 18.176062 22.426365 18.089844 22.949219C14.577562 22.698249 11.411042 21.208103 9.6464844 19.138672C7.7098037 16.867379 7.1775284 14.104368 9.4511719 10.5625C9.9315359 9.8137364 10.524165 9.0864698 11.308594 8.6191406C11.896915 8.2686437 12.599846 8.0230584 13.599609 8.0410156 z M 24 21.019531C25.124999 21.019531 25.778816 21.387398 26.253906 21.921875C26.728997 22.456352 27 23.227864 27 24.019531C27 24.811198 26.728997 25.580757 26.253906 26.115234C25.778816 26.649712 25.124999 27.019531 24 27.019531C22.875001 27.019531 22.221184 26.649712 21.746094 26.115234C21.271003 25.580757 21 24.811198 21 24.019531C21 23.227864 21.271003 22.456352 21.746094 21.921875C22.221184 21.387398 22.875001 21.019531 24 21.019531 z M 29.914062 25.050781C33.424795 25.302581 36.589607 26.792658 38.353516 28.861328C40.290196 31.132621 40.822472 33.895632 38.548828 37.4375C38.068464 38.186264 37.475835 38.91353 36.691406 39.380859C35.906977 39.848189 34.918765 40.130064 33.294922 39.847656C32.32898 39.679599 31.171925 38.792822 30.572266 37.619141C29.972606 36.445459 29.874962 35.163084 30.662109 33.935547C31.357058 32.85162 31.770834 31.860543 31.894531 30.890625C32.018229 29.920707 31.800831 28.971597 31.349609 28.251953C30.845567 27.448062 30.164786 26.944942 29.466797 26.583984C29.683143 26.091779 29.830766 25.575548 29.914062 25.050781 z M 21.408203 29.482422C21.881911 29.6926 22.399337 29.840391 22.947266 29.927734C22.692551 33.433005 21.204659 36.591895 19.138672 38.353516C16.867379 40.290196 14.104368 40.822472 10.5625 38.548828C9.8137364 38.068464 9.0864698 37.475835 8.6191406 36.691406C8.1518114 35.906977 7.8699361 34.918765 8.1523438 33.294922C8.3204013 32.32898 9.2071783 31.171925 10.380859 30.572266C11.554541 29.972606 12.836916 29.874962 14.064453 30.662109C15.14838 31.357058 16.139457 31.770834 17.109375 31.894531C18.079293 32.018229 19.028403 31.800831 19.748047 31.349609C20.545858 30.849379 21.047615 30.174858 21.408203 29.482422 z" fill="#939393" />
</svg>