<svg xmlns="http://www.w3.org/2000/svg" viewBox="0 0 32 32"><path d="M16 4C11.042969 4 7 8.042969 7 13C7 14.917969 7.84375 16.90625 9 18.6875C9.859375 20.011719 10.886719 21.230469 12 22.15625L12 25C12 26.09375 12.90625 27 14 27L15 28L17 28L18 27C19.09375 27 20 26.09375 20 25L20 22.15625C21.113281 21.230469 22.140625 20.011719 23 18.6875C24.15625 16.90625 25 14.917969 25 13C25 8.042969 20.957031 4 16 4 Z M 16 6C19.878906 6 23 9.121094 23 13C23 14.308594 22.355469 16.035156 21.34375 17.59375C20.441406 18.984375 19.253906 20.222656 18.15625 21L13.84375 21C12.746094 20.222656 11.558594 18.984375 10.65625 17.59375C9.644531 16.035156 9 14.308594 9 13C9 9.121094 12.121094 6 16 6 Z M 14.25 23L17.75 23C17.828125 23.054688 17.910156 23.09375 18 23.125L18 25L14 25L14 23.125C14.089844 23.09375 14.171875 23.054688 14.25 23Z"/></svg>