<svg xmlns="http://www.w3.org/2000/svg" viewBox="0 0 48 48">
<path stroke= "#ffffff" stroke-width="0.1px" d="M10.5 5C6.92 5 4 7.92 4 11.5L4 30.5C4 34.08 6.92 37 10.5 37L22.150391 37C22.050391 36.35 22 35.68 22 35C22 34.66 22.010781 34.33 22.050781 34L10.5 34C8.57 34 7 32.43 7 30.5L7 16.015625L23.287109 24.820312 A 1.50015 1.50015 0 0 0 24.712891 24.820312L41 16.015625L41 23.470703C42.1 24.040703 43.11 24.770859 44 25.630859L44 11.5C44 7.92 41.08 5 37.5 5L10.5 5 z M 10.5 8L37.5 8C39.43 8 41 9.57 41 11.5L41 12.605469L24 21.794922L7 12.605469L7 11.5C7 9.57 8.57 8 10.5 8 z M 35 24C28.925 24 24 28.925 24 35C24 41.075 28.925 46 35 46C41.075 46 46 41.075 46 35C46 28.925 41.075 24 35 24 z M 32 29C32.25575 29 32.511531 29.097469 32.707031 29.292969L34.707031 31.292969C35.098031 31.683969 35.098031 32.316031 34.707031 32.707031C34.512031 32.902031 34.256 33 34 33C33.744 33 33.487969 32.902031 33.292969 32.707031L33 32.414062L33 40C33 40.553 32.553 41 32 41C31.447 41 31 40.553 31 40L31 32.414062L30.707031 32.707031C30.316031 33.098031 29.683969 33.098031 29.292969 32.707031C28.901969 32.316031 28.901969 31.683969 29.292969 31.292969L31.292969 29.292969C31.488469 29.097469 31.74425 29 32 29 z M 38 29C38.553 29 39 29.447 39 30L39 37.585938L39.292969 37.292969C39.683969 36.901969 40.316031 36.901969 40.707031 37.292969C41.098031 37.683969 41.098031 38.316031 40.707031 38.707031L38.707031 40.707031C38.512031 40.902031 38.256 41 38 41C37.744 41 37.487969 40.902031 37.292969 40.707031L35.292969 38.707031C34.901969 38.316031 34.901969 37.683969 35.292969 37.292969C35.683969 36.901969 36.316031 36.901969 36.707031 37.292969L37 37.585938L37 30C37 29.447 37.447 29 38 29 z"/></svg>