<svg xmlns="http://www.w3.org/2000/svg" viewBox="0 0 48 48" >
  <path stroke= "#ffffff" stroke-width="0.1px" d="M24 2C19.070732 2 15 6.0707317 15 11L15 26C15 30.929268 19.070732 35 24 35C28.929268 35 33 30.929268 33 26L33 11C33 6.0707317 28.929268 2 24 2 z M 24 5C27.270732 5 30 7.7292683 30 11L30 26C30 29.270732 27.270732 32 24 32C20.729268 32 18 29.270732 18 26L18 11C18 7.7292683 20.729268 5 24 5 z M 10.476562 20.978516 A 1.50015 1.50015 0 0 0 9 22.5L9 26C9 33.793775 14.907307 40.17421 22.5 40.923828L22.5 45.5 A 1.50015 1.50015 0 1 0 25.5 45.5L25.5 40.923828C33.092693 40.17421 39 33.793775 39 26L39 22.5 A 1.50015 1.50015 0 1 0 36 22.5L36 26C36 32.639251 30.793463 37.897266 24.179688 37.992188 A 1.50015 1.50015 0 0 0 23.976562 37.978516 A 1.50015 1.50015 0 0 0 23.8125 37.990234C17.202515 37.891199 12 32.636583 12 26L12 22.5 A 1.50015 1.50015 0 0 0 10.476562 20.978516 z" fill="#010101" />
</svg>