<svg xmlns="http://www.w3.org/2000/svg" viewBox="0 0 48 48">
<path stroke= "#ffffff" stroke-width="0.1px" d="M11.5 6C8.4802259 6 6 8.4802259 6 11.5L6 36.5C6 39.519774 8.4802259 42 11.5 42L36.5 42C39.519774 42 42 39.519774 42 36.5L42 11.5C42 8.4802259 39.519774 6 36.5 6L11.5 6 z M 11.5 9L36.5 9C37.898226 9 39 10.101774 39 11.5L39 36.5C39 37.898226 37.898226 39 36.5 39L34 39L34 31.5C34 29.585045 32.414955 28 30.5 28L17.5 28C15.585045 28 14 29.585045 14 31.5L14 39L11.5 39C10.101774 39 9 37.898226 9 36.5L9 11.5C9 10.101774 10.101774 9 11.5 9 z M 24 14C22.125 14 20.528815 14.757133 19.503906 15.910156C18.478997 17.063179 18 18.541667 18 20C18 21.458333 18.478997 22.936821 19.503906 24.089844C20.528815 25.242867 22.125 26 24 26C25.875 26 27.471185 25.242867 28.496094 24.089844C29.521003 22.936821 30 21.458333 30 20C30 18.541667 29.521003 17.063179 28.496094 15.910156C27.471185 14.757133 25.875 14 24 14 z M 24 17C25.124999 17 25.778816 17.367867 26.253906 17.902344C26.728997 18.436821 27 19.208333 27 20C27 20.791667 26.728997 21.563179 26.253906 22.097656C25.778816 22.632133 25.124999 23 24 23C22.875001 23 22.221184 22.632133 21.746094 22.097656C21.271003 21.563179 21 20.791667 21 20C21 19.208333 21.271003 18.436821 21.746094 17.902344C22.221184 17.367867 22.875001 17 24 17 z M 17.5 31L30.5 31C30.795045 31 31 31.204955 31 31.5L31 39L17 39L17 31.5C17 31.204955 17.204955 31 17.5 31 z"/></svg>