<svg xmlns="http://www.w3.org/2000/svg" viewBox="0 0 30 30">
  <path stroke= "#ffffff" stroke-width="0.1px" d="M14.984375 2.9863281 A 1.0001 1.0001 0 0 0 14 4L14 15 A 1.0001 1.0001 0 1 0 16 15L16 4 A 1.0001 1.0001 0 0 0 14.984375 2.9863281 z M 9.9960938 4.2128906 A 1.0001 1.0001 0 0 0 9.5449219 4.328125C5.6645289 6.3141271 3 10.347825 3 15C3 21.615466 8.3845336 27 15 27C21.615466 27 27 21.615466 27 15C27 10.347825 24.335471 6.3141271 20.455078 4.328125 A 1.0001544 1.0001544 0 1 0 19.544922 6.109375C22.780529 7.7653729 25 11.110175 25 15C25 20.534534 20.534534 25 15 25C9.4654664 25 5 20.534534 5 15C5 11.110175 7.2194712 7.7653729 10.455078 6.109375 A 1.0001 1.0001 0 0 0 9.9960938 4.2128906 z" fill="#F00007" />
</svg>