<svg xmlns="http://www.w3.org/2000/svg" viewBox="0 0 48 48">
  <path stroke= "#ffffff" stroke-width="0.1px" d="M40 7 A 2 2 0 0 0 40 11 A 2 2 0 0 0 40 7 z M 31.970703 12.972656 A 2.0002 2.0002 0 0 0 30 15L30 39 A 2.0002 2.0002 0 1 0 34 39L34 15 A 2.0002 2.0002 0 0 0 31.970703 12.972656 z M 40 13 A 2 2 0 0 0 40 17 A 2 2 0 0 0 40 13 z M 23.970703 18.972656 A 2.0002 2.0002 0 0 0 22 21L22 39 A 2.0002 2.0002 0 1 0 26 39L26 21 A 2.0002 2.0002 0 0 0 23.970703 18.972656 z M 40 19 A 2 2 0 0 0 40 23 A 2 2 0 0 0 40 19 z M 15.970703 24.972656 A 2.0002 2.0002 0 0 0 14 27L14 39 A 2.0002 2.0002 0 1 0 18 39L18 27 A 2.0002 2.0002 0 0 0 15.970703 24.972656 z M 40 25 A 2 2 0 0 0 40 29 A 2 2 0 0 0 40 25 z M 7.9707031 30.972656 A 2.0002 2.0002 0 0 0 6 33L6 39 A 2.0002 2.0002 0 1 0 10 39L10 33 A 2.0002 2.0002 0 0 0 7.9707031 30.972656 z M 40 31 A 2 2 0 0 0 40 35 A 2 2 0 0 0 40 31 z M 40 37 A 2 2 0 0 0 40 41 A 2 2 0 0 0 40 37 z" fill="#939393" />
</svg>