<svg xmlns="http://www.w3.org/2000/svg" viewBox="0 0 48 48"><path d="M23.976562 1.9785156 A 1.50015 1.50015 0 0 0 22.5 3.5L22.5 7.5 A 1.50015 1.50015 0 1 0 25.5 7.5L25.5 3.5 A 1.50015 1.50015 0 0 0 23.976562 1.9785156 z M 9.484375 7.984375 A 1.50015 1.50015 0 0 0 8.4394531 10.560547L10.439453 12.560547 A 1.50015 1.50015 0 1 0 12.560547 10.439453L10.560547 8.4394531 A 1.50015 1.50015 0 0 0 9.484375 7.984375 z M 39.470703 7.9863281 A 1.50015 1.50015 0 0 0 38.439453 8.4394531L36.439453 10.439453 A 1.50015 1.50015 0 1 0 38.560547 12.560547L40.560547 10.560547 A 1.50015 1.50015 0 0 0 39.470703 7.9863281 z M 21.78125 11C16.333747 11 11.769087 15.200222 11.316406 20.628906L10.121094 35L9.5 35C8.1364058 35 7 36.136406 7 37.5L7 40.5C7 41.863594 8.1364058 43 9.5 43L38.5 43C39.863594 43 41 41.863594 41 40.5L41 37.5C41 36.136406 39.863594 35 38.5 35L37.878906 35L36.683594 20.628906C36.230913 15.200222 31.666253 11 26.21875 11L21.78125 11 z M 21.78125 14L26.21875 14C30.133247 14 33.368041 16.975637 33.693359 20.876953L34.871094 35L13.128906 35L14.306641 20.876953C14.631959 16.975637 17.866753 14 21.78125 14 z M 4.5 22 A 1.50015 1.50015 0 1 0 4.5 25L7.5 25 A 1.50015 1.50015 0 1 0 7.5 22L4.5 22 z M 40.5 22 A 1.50015 1.50015 0 1 0 40.5 25L43.5 25 A 1.50015 1.50015 0 1 0 43.5 22L40.5 22 z M 10 38L11.5 38L36.5 38L38 38L38 40L10 40L10 38 z"/></svg>