<svg xmlns="http://www.w3.org/2000/svg" viewBox="0 0 48 48">
  <path stroke= "#ffffff" stroke-width="0.1px" d="M23.810547 16.027344C18.09553 16.027344 12.3
81884 18.202101 8.0332031 22.550781 A 2.0002 2.0002 0 1 0 10.861328 25.378906C18.029967 18.210267 29.59308 18.210267 36.761719 25.378906 A 2.0002 2.0002 0 1 0 39.589844 22.550781C35.241163 18.202101 29.525563 16.027344 23.810547 16.027344 z M 23.810547 24.947266C20.378044 24.947266 16.945099 26.250213 14.337891 28.857422 A 2.000477 2.000477 0 1 0 17.167969 31.685547C20.853552 27.999964 26.769495 27.999964 30.455078 31.685547 A 2.0002 2.0002 0 1 0 33.283203 28.857422C30.675995 26.250213 27.243049 24.947266 23.810547 24.947266 z M 24 34 A 4 4 0 0 0 24 42 A 4 4 0 0 0 24 34 z" fill="#00E900" /></svg>